<svg xmlns="http://www.w3.org/2000/svg" viewBox="0 0 1200 400" width="1200" height="400">
  <!-- Gradient de fond -->
  <defs>
    <linearGradient id="bgGradient" x1="0%" y1="0%" x2="100%" y2="100%">
      <stop offset="0%" style="stop-color:#f0f9ff;stop-opacity:1" />
      <stop offset="50%" style="stop-color:#e0f2fe;stop-opacity:1" />
      <stop offset="100%" style="stop-color:#f8fafc;stop-opacity:1" />
    </linearGradient>
    
    <!-- Gradient pour les formes -->
    <linearGradient id="shapeGradient1" x1="0%" y1="0%" x2="100%" y2="100%">
      <stop offset="0%" style="stop-color:#12B6A8;stop-opacity:0.1" />
      <stop offset="100%" style="stop-color:#FF6F61;stop-opacity:0.1" />
    </linearGradient>
    
    <linearGradient id="shapeGradient2" x1="0%" y1="0%" x2="100%" y2="100%">
      <stop offset="0%" style="stop-color:#FF6F61;stop-opacity:0.08" />
      <stop offset="100%" style="stop-color:#12B6A8;stop-opacity:0.08" />
    </linearGradient>
  </defs>
  
  <!-- Fond principal -->
  <rect width="100%" height="100%" fill="url(#bgGradient)"/>
  
  <!-- Formes organiques pour représenter les ondes sonores -->
  <!-- Grande vague douce -->
  <path d="M0 200 Q300 150 600 180 T1200 160 L1200 400 L0 400 Z" fill="url(#shapeGradient1)"/>
  
  <!-- Vague médiane -->
  <path d="M0 250 Q200 220 400 230 T800 210 T1200 200 L1200 400 L0 400 Z" fill="url(#shapeGradient2)"/>
  
  <!-- Petites vagues supérieures -->
  <path d="M0 100 Q150 80 300 90 T600 70 T900 85 T1200 75 L1200 150 Q900 140 600 130 T300 140 T0 150 Z" fill="url(#shapeGradient1)" opacity="0.6"/>
  
  <!-- Cercles flottants (représentent l'écoute, l'ouïe) -->
  <circle cx="150" cy="120" r="8" fill="#12B6A8" opacity="0.3"/>
  <circle cx="980" cy="80" r="12" fill="#FF6F61" opacity="0.3"/>
  <circle cx="750" cy="140" r="6" fill="#12B6A8" opacity="0.4"/>
  <circle cx="450" cy="90" r="10" fill="#FF6F61" opacity="0.3"/>
  
  <!-- Petits éléments décoratifs -->
  <circle cx="200" cy="180" r="3" fill="#12B6A8" opacity="0.5"/>
  <circle cx="850" cy="160" r="4" fill="#FF6F61" opacity="0.4"/>
  <circle cx="600" cy="200" r="2" fill="#12B6A8" opacity="0.6"/>
  
  <!-- Lignes ondulées subtiles -->
  <path d="M50 50 Q150 40 250 50 T450 45 T650 50 T850 45 T1050 50" stroke="#12B6A8" stroke-width="1" fill="none" opacity="0.3"/>
  <path d="M100 70 Q200 60 300 70 T500 65 T700 70 T900 65 T1100 70" stroke="#FF6F61" stroke-width="1" fill="none" opacity="0.3"/>
</svg>
